<mxfile host="app.diagrams.net" agent="Mozilla/5.0 (Windows NT 10.0; Win64; x64) AppleWebKit/537.36 (KHTML, like Gecko) Chrome/138.0.0.0 Safari/537.36" version="28.0.6">
  <diagram name="Page-1" id="5m_UfTD_3fZMnyA-Svn9">
    <mxGraphModel dx="1042" dy="623" grid="1" gridSize="10" guides="1" tooltips="1" connect="1" arrows="1" fold="1" page="1" pageScale="1" pageWidth="850" pageHeight="1100" math="0" shadow="0">
      <root>
        <mxCell id="0" />
        <mxCell id="1" parent="0" />
        <mxCell id="ve4JHUipqY9wXD8En-_S-3" value="" style="rounded=0;whiteSpace=wrap;html=1;" parent="1" vertex="1">
          <mxGeometry x="90" y="180" width="650" height="580" as="geometry" />
        </mxCell>
        <mxCell id="ve4JHUipqY9wXD8En-_S-4" value="CHARUSAT PORTAL - Login" style="text;html=1;align=center;verticalAlign=middle;whiteSpace=wrap;rounded=0;fontSize=42;" parent="1" vertex="1">
          <mxGeometry x="160" y="195" width="580" height="70" as="geometry" />
        </mxCell>
        <mxCell id="ve4JHUipqY9wXD8En-_S-6" value="------------------------------------" style="text;html=1;align=center;verticalAlign=middle;whiteSpace=wrap;rounded=0;fontSize=50;" parent="1" vertex="1">
          <mxGeometry x="105" y="270" width="620" height="30" as="geometry" />
        </mxCell>
        <mxCell id="ve4JHUipqY9wXD8En-_S-8" value="Username:" style="text;html=1;align=center;verticalAlign=middle;whiteSpace=wrap;rounded=0;fontSize=42;" parent="1" vertex="1">
          <mxGeometry x="105" y="310" width="220" height="40" as="geometry" />
        </mxCell>
        <mxCell id="ve4JHUipqY9wXD8En-_S-12" value="" style="line;strokeWidth=2;html=1;" parent="1" vertex="1">
          <mxGeometry x="345" y="350" width="295" height="10" as="geometry" />
        </mxCell>
        <mxCell id="ve4JHUipqY9wXD8En-_S-14" value="Password:" style="text;html=1;align=center;verticalAlign=middle;whiteSpace=wrap;rounded=0;fontSize=42;" parent="1" vertex="1">
          <mxGeometry x="105" y="400" width="220" height="40" as="geometry" />
        </mxCell>
        <mxCell id="ve4JHUipqY9wXD8En-_S-15" value="" style="line;strokeWidth=2;html=1;" parent="1" vertex="1">
          <mxGeometry x="345" y="440" width="295" height="10" as="geometry" />
        </mxCell>
        <mxCell id="ve4JHUipqY9wXD8En-_S-16" value="Login" style="rounded=1;whiteSpace=wrap;html=1;fontSize=29;fillColor=#0050ef;fontColor=#ffffff;strokeColor=#001DBC;" parent="1" vertex="1">
          <mxGeometry x="140" y="500" width="520" height="60" as="geometry" />
        </mxCell>
        <mxCell id="ve4JHUipqY9wXD8En-_S-17" value="------------------------------------" style="text;html=1;align=center;verticalAlign=middle;whiteSpace=wrap;rounded=0;fontSize=50;" parent="1" vertex="1">
          <mxGeometry x="105" y="580" width="620" height="30" as="geometry" />
        </mxCell>
        <mxCell id="ve4JHUipqY9wXD8En-_S-18" value="Forgot Password?" style="text;html=1;align=center;verticalAlign=middle;whiteSpace=wrap;rounded=0;fontSize=42;fontColor=light-dark(#000000,#3F52FF);" parent="1" vertex="1">
          <mxGeometry x="210" y="650" width="370" height="40" as="geometry" />
        </mxCell>
      </root>
    </mxGraphModel>
  </diagram>
</mxfile>
